{"title":"Los Perros de la Guerra (1980) - Christopher Walken","uid":9292104,"size":749345179,"categoryP":"video","categoryS":"movies","magnet":"?xt=urn:btih:77cfc997700d3b233fc084ff1afeac8418710521&amp;dn=Los+Perros+de+la+Guerra+%281980%29+-+Christopher+Walken&amp;tr=udp%3A%2F%2Ftracker.openbittorrent.com%3A80&amp;tr=udp%3A%2F%2Fopen.demonii.com%3A1337&amp;tr=udp%3A%2F%2Ftracker.coppersurfer.tk%3A6969&amp;tr=udp%3A%2F%2Fexodus.desync.com%3A6969","seeders":1,"leechers":0,"uploader":"Aqvila_79","files":2,"time":1386111875,"description":"General\nComplete name                    : Los Perros de la Guerra (1980).avi\nFormat                           : AVI\nFormat/Info                      : Audio Video Interleave\nFile size                        : 715 MiB\nDuration                         : 1h 39mn\nOverall bit rate                 : 1 002 Kbps\nWriting library                  : VirtualDub build 18160/release\n\nVideo\nID                               : 0\nFormat                           : MPEG-4 Visual\nFormat settings, BVOP            : Yes\nFormat settings, QPel            : No\nFormat settings, GMC             : No warppoints\nFormat settings, Matrix          : Default (H.263)\nCodec ID                         : XVID\nCodec ID/Hint                    : XviD\nDuration                         : 1h 39mn\nBit rate                         : 870 Kbps\nWidth                            : 480 pixels\nHeight                           : 368 pixels\nDisplay aspect ratio             : 4:3\nFrame rate                       : 25.000 fps\nColor space                      : YUV\nChroma subsampling               : 4:2:0\nBit depth                        : 8 bits\nScan type                        : Progressive\nCompression mode                 : Lossy\nBits/(Pixel*Frame)               : 0.197\nStream size                      : 621 MiB (87%)\n\nAudio\nID                               : 1\nFormat                           : MPEG Audio\nFormat version                   : Version 1\nFormat profile                   : Layer 3\nCodec ID                         : 55\nCodec ID/Hint                    : MP3\nDuration                         : 1h 35mn\nBit rate mode                    : Constant\nBit rate                         : 128 Kbps\nChannel(s)                       : 2 channels\nSampling rate                    : 44.1 KHz\nCompression mode                 : Lossy\nDelay relative to video          : 22ms\nStream size                      : 87.2 MiB (12%)\nAlignment                        : Split accross interleaves\nInterleave, duration             : 42 ms (1.05 video frame)\nInterleave, preload duration     : 500 ms\nWriting library                  : LAME3.93\n\n","torrent":{"xt":"urn:btih:77cfc997700d3b233fc084ff1afeac8418710521","amp;dn":"Los+Perros+de+la+Guerra+%281980%29+-+Christopher+Walken","amp;tr":["udp%3A%2F%2Ftracker.openbittorrent.com%3A80","udp%3A%2F%2Fopen.demonii.com%3A1337","udp%3A%2F%2Ftracker.coppersurfer.tk%3A6969","udp%3A%2F%2Fexodus.desync.com%3A6969"],"infoHash":"77cfc997700d3b233fc084ff1afeac8418710521","infoHashBuffer":{"type":"Buffer","data":[119,207,201,151,112,13,59,35,63,192,132,255,26,254,172,132,24,113,5,33]},"announce":[],"urlList":[]}}